<svg xmlns="http://www.w3.org/2000/svg" width="1200" height="660" viewBox="0 0 1200 660" role="img" aria-labelledby="title desc">
  <title id="title">Uptime Monitor CLI walkthrough</title>
  <desc id="desc">A terminal session creates a monitor, lists it as healthy, and shows the status of its project.</desc>
  <rect width="1200" height="660" rx="20" fill="#111827"/>
  <rect x="1" y="1" width="1198" height="658" rx="19" fill="none" stroke="#374151" stroke-width="2"/>
  <circle cx="36" cy="36" r="9" fill="#fb7185"/>
  <circle cx="64" cy="36" r="9" fill="#fbbf24"/>
  <circle cx="92" cy="36" r="9" fill="#4ade80"/>
  <text x="600" y="43" fill="#9ca3af" font-family="SFMono-Regular, Consolas, Liberation Mono, monospace" font-size="17" text-anchor="middle">uptime-monitor — bash</text>
  <g font-family="SFMono-Regular, Consolas, Liberation Mono, monospace" font-size="20">
    <text x="42" y="96" fill="#a7f3d0">$</text><text x="66" y="96" fill="#f9fafb">pnpm exec uptime monitor create "Example API" \</text>
    <text x="66" y="126" fill="#f9fafb">  --slug example-api --project example-services \</text>
    <text x="66" y="156" fill="#f9fafb">  --url https://api.example.com/ --yes --no-input</text>

    <text x="66" y="206" fill="#d1d5db">Discovery check</text>
    <text x="66" y="236" fill="#d1d5db">  HTTP 200 · 42ms · text/plain; charset=utf-8</text>
    <text x="66" y="266" fill="#d1d5db">  Body: "OK"</text>

    <text x="66" y="316" fill="#4ade80">●</text><text x="94" y="316" fill="#f9fafb" font-weight="700">Example API</text><text x="238" y="316" fill="#9ca3af">(example-api)</text>
    <text x="66" y="346" fill="#d1d5db">  Status          </text><text x="278" y="346" fill="#4ade80">HEALTHY</text>
    <text x="66" y="376" fill="#d1d5db">  Project         example-services</text>
    <text x="66" y="406" fill="#d1d5db">  URL             https://api.example.com/</text>
    <text x="66" y="436" fill="#d1d5db">  Last check      now</text>

    <text x="42" y="496" fill="#a7f3d0">$</text><text x="66" y="496" fill="#f9fafb">pnpm exec uptime project status example-services</text>
    <text x="66" y="546" fill="#4ade80">● HEALTHY</text><text x="202" y="546" fill="#d1d5db">  example-services         1 monitor  Example Services</text>
    <text x="66" y="576" fill="#4ade80">  ● HEALTHY</text><text x="202" y="576" fill="#d1d5db">  example-api               checked now</text>

    <text x="42" y="626" fill="#a7f3d0">$</text><rect x="62" y="608" width="12" height="24" fill="#f9fafb"/>
  </g>
</svg>
